HIERARCHY
ROOT hip
{
  OFFSET 0 0 0
  CHANNELS 6 Xposition Yposition Zposition Zrotation Yrotation Xrotation
  JOINT abdomen
  {
    OFFSET 0 20.6881 -0.73152
    CHANNELS 3 Zrotation Xrotation Yrotation
    JOINT chest
    {
      OFFSET 0 11.7043 -0.48768
      CHANNELS 3 Zrotation Xrotation Yrotation
      JOINT neck
      {
        OFFSET 0 22.1894 -2.19456
        CHANNELS 3 Zrotation Xrotation Yrotation
        JOINT head
        {
          OFFSET -0.24384 7.07133 1.2192
          CHANNELS 3 Zrotation Xrotation Yrotation
          JOINT leftEye
          {
            OFFSET 4.14528 8.04674 8.04672
            CHANNELS 3 Zrotation Xrotation Yrotation
            End Site
            {
              OFFSET 1 0 0
            }
          }
          JOINT rightEye
          {
            OFFSET -3.6576 8.04674 8.04672
            CHANNELS 3 Zrotation Xrotation Yrotation
            End Site
            {
              OFFSET 1 0 0
            }
          }
        }
      }
      JOINT rCollar
      {
        OFFSET -2.68224 19.2634 -4.8768
        CHANNELS 3 Zrotation Xrotation Yrotation
        JOINT rShldr
        {
          OFFSET -8.77824 -1.95073 1.46304
          CHANNELS 3 Zrotation Xrotation Yrotation
          JOINT rForeArm
          {
            OFFSET -28.1742 -1.7115 0.48768
            CHANNELS 3 Zrotation Xrotation Yrotation
            JOINT rHand
            {
              OFFSET -22.5879 0.773209 7.07136
              CHANNELS 3 Zrotation Xrotation Yrotation
              JOINT rThumb1
              {
                OFFSET -1.2192 -0.487915 3.41376
                CHANNELS 3 Zrotation Xrotation Yrotation
                JOINT rThumb2
                {
                  OFFSET -3.37035 -0.52449 3.41376
                  CHANNELS 3 Zrotation Xrotation Yrotation
                  End Site
                  {
                    OFFSET -1.78271 -1.18214 1.43049
                  }
                }
              }
              JOINT rIndex1
              {
                OFFSET -7.75947 0.938293 5.60832
                CHANNELS 3 Zrotation Xrotation Yrotation
                JOINT rIndex2
                {
                  OFFSET -2.54057 -0.884171 1.56538
                  CHANNELS 3 Zrotation Xrotation Yrotation
                  End Site
                  {
                    OFFSET -1.62519 -0.234802 1.16502
                  }
                }
              }
              JOINT rMid1
              {
                OFFSET -8.24714 1.18213 3.41376
                CHANNELS 3 Zrotation Xrotation Yrotation
                JOINT rMid2
                {
                  OFFSET -3.10165 -0.590103 1.0647
                  CHANNELS 3 Zrotation Xrotation Yrotation
                  End Site
                  {
                    OFFSET -2.48547 -0.328903 0.83742
                  }
                }
              }
              JOINT rRing1
              {
                OFFSET -8.82822 0.546677 1.51678
                CHANNELS 3 Zrotation Xrotation Yrotation
                JOINT rRing2
                {
                  OFFSET -2.60934 -0.819778 -0.0198488
                  CHANNELS 3 Zrotation Xrotation Yrotation
                  End Site
                  {
                    OFFSET -2.33842 -0.294052 0.168128
                  }
                }
              }
              JOINT rPinky1
              {
                OFFSET -8.27202 -0.0477905 -0.4584
                CHANNELS 3 Zrotation Xrotation Yrotation
                JOINT rPinky2
                {
                  OFFSET -1.82734 -0.647385 -0.700984
                  CHANNELS 3 Zrotation Xrotation Yrotation
                  End Site
                  {
                    OFFSET -1.69225 -0.51767 -0.607171
                  }
                }
              }
            }
          }
        }
      }
      JOINT lCollar
      {
        OFFSET 2.68224 19.2634 -4.8768
        CHANNELS 3 Zrotation Xrotation Yrotation
        JOINT lShldr
        {
          OFFSET 8.77824 -1.95073 1.46304
          CHANNELS 3 Zrotation Xrotation Yrotation
          JOINT lForeArm
          {
            OFFSET 28.1742 -1.7115 0.48768
            CHANNELS 3 Zrotation Xrotation Yrotation
            JOINT lHand
            {
              OFFSET 22.5879 0.773209 7.07136
              CHANNELS 3 Zrotation Xrotation Yrotation
              JOINT lThumb1
              {
                OFFSET 1.2192 -0.487915 3.41376
                CHANNELS 3 Zrotation Xrotation Yrotation
                JOINT lThumb2
                {
                  OFFSET 3.37035 -0.52449 3.41376
                  CHANNELS 3 Zrotation Xrotation Yrotation
                  End Site
                  {
                    OFFSET 1.78271 -1.18214 1.43049
                  }
                }
              }
              JOINT lIndex1
              {
                OFFSET 7.75947 0.938293 5.60832
                CHANNELS 3 Zrotation Xrotation Yrotation
                JOINT lIndex2
                {
                  OFFSET 2.54057 -0.884171 1.56538
                  CHANNELS 3 Zrotation Xrotation Yrotation
                  End Site
                  {
                    OFFSET 1.62519 -0.234802 1.16502
                  }
                }
              }
              JOINT lMid1
              {
                OFFSET 8.24714 1.18213 3.41376
                CHANNELS 3 Zrotation Xrotation Yrotation
                JOINT lMid2
                {
                  OFFSET 3.10165 -0.590103 1.0647
                  CHANNELS 3 Zrotation Xrotation Yrotation
                  End Site
                  {
                    OFFSET 2.48547 -0.328903 0.83742
                  }
                }
              }
              JOINT lRing1
              {
                OFFSET 8.82822 0.546677 1.51678
                CHANNELS 3 Zrotation Xrotation Yrotation
                JOINT lRing2
                {
                  OFFSET 2.60934 -0.819778 -0.0198488
                  CHANNELS 3 Zrotation Xrotation Yrotation
                  End Site
                  {
                    OFFSET 2.33842 -0.294052 0.168128
                  }
                }
              }
              JOINT lPinky1
              {
                OFFSET 8.27202 -0.0477905 -0.4584
                CHANNELS 3 Zrotation Xrotation Yrotation
                JOINT lPinky2
                {
                  OFFSET 1.82734 -0.647385 -0.700984
                  CHANNELS 3 Zrotation Xrotation Yrotation
                  End Site
                  {
                    OFFSET 1.69225 -0.51767 -0.607171
                  }
                }
              }
            }
          }
        }
      }
    }
  }
  JOINT rButtock
  {
    OFFSET -8.77824 4.35084 1.2192
    CHANNELS 3 Zrotation Xrotation Yrotation
    JOINT rThigh
    {
      OFFSET 0 -1.70687 -2.19456
      CHANNELS 3 Zrotation Xrotation Yrotation
      JOINT rShin
      {
        OFFSET 0 -36.8199 0.73152
        CHANNELS 3 Zrotation Xrotation Yrotation
        JOINT rFoot
        {
          OFFSET 0.73152 -45.1104 -5.12064
          CHANNELS 3 Zrotation Xrotation Yrotation
          End Site
          {
            OFFSET -1.1221 -3.69964 12.103
          }
        }
      }
    }
  }
  JOINT lButtock
  {
    OFFSET 8.77824 4.35084 1.2192
    CHANNELS 3 Zrotation Xrotation Yrotation
    JOINT lThigh
    {
      OFFSET 0 -1.70687 -2.19456
      CHANNELS 3 Zrotation Xrotation Yrotation
      JOINT lShin
      {
        OFFSET 0 -36.8199 0.73152
        CHANNELS 3 Zrotation Xrotation Yrotation
        JOINT lFoot
        {
          OFFSET -0.73152 -45.1104 -5.12064
          CHANNELS 3 Zrotation Xrotation Yrotation
          End Site
          {
            OFFSET 1.1221 -3.69964 12.103
          }
        }
      }
    }
  }
}
MOTION
Frames:	4
Frame Time:	0.03333
-0.08371999859809875 64.47840118408203 -0.13770000636577606 -356.97500467300415 43.545700907707214 -353.76600980758667 -9.718539789319038 15.601000338792801 -2.691560033708811 7.3178500682115555 -12.392700165510178 -0.2924079936929047 -8.588690087199211 19.428099542856216 -14.651499688625336 12.50239983201027 -32.14220076799393 -26.020300090312958 0.0 0.0 0.0 0.0 0.0 0.0 0.0 0.0 0.0 52.641897797584534 -2.8718100115656853 31.595301032066345 -27.857801020145416 -29.822500348091125 66.96560204029083 -1.7139500007033348 34.42870080471039 5.528099834918976 -2.5573143602741766e-09 2.389128894719761e-09 4.0466829887009226e-09 -4.314308910124964e-09 4.374101081339177e-09 7.034373084024992e-09 -2.5573143602741766e-09 2.389128894719761e-09 4.0466829887009226e-09 7.7309102565050125 5.474880114197731 0.41731400415301323 -2.5573143602741766e-09 2.389128894719761e-09 4.0466829887009226e-09 2.905540131032467 0.9651830233633518 0.102901995414868 -2.5573143602741766e-09 2.389128894719761e-09 4.0466829887009226e-09 10.27859978377819 0.7318009994924068 0.025912300043273717 -2.5573143602741766e-09 2.389128894719761e-09 4.0466829887009226e-09 2.221670038998127 -0.733487019315362 -0.2089200052432716 0.0 0.0 0.0 -30.735500156879425 80.64220190048218 -44.668900072574615 26.688100397586823 -44.80220049619675 -93.05660247802734 50.45539855957031 -80.60129821300507 58.10909807682037 1.6927259594012867e-09 3.1703280001238454e-08 2.6193447411060333e-09 2.7290170123706048e-09 5.3210555961413775e-08 4.532694219960831e-09 1.6927259594012867e-09 3.1703280001238454e-08 2.6193447411060333e-09 -7.7309102565050125 5.474880114197731 -0.41731400415301323 1.6927259594012867e-09 3.1703280001238454e-08 2.6193447411060333e-09 -2.905540131032467 0.9651830233633518 -0.102901995414868 1.6927259594012867e-09 3.1703280001238454e-08 2.6193447411060333e-09 -10.27859978377819 0.7318009994924068 -0.025912300043273717 1.6927259594012867e-09 3.1703280001238454e-08 2.6193447411060333e-09 -2.221670038998127 -0.733487019315362 0.2089200052432716 0.0 0.0 0.0 -55.04270017147064 -52.75479733943939 -52.33239769935608 -3.63209992647171 76.72319948673248 3.9702701568603516 -0.06796540052164346 -13.97900015115738 1.1284100264310837 0.0 0.0 0.0 30.947700440883636 -34.14470046758652 35.0993013381958 3.420419991016388 77.72170007228851 -4.847489967942238 7.534209787845612 -15.210800617933273 16.96839988231659
-0.1277099996805191 64.47579956054688 -0.2744000107049942 -356.9539976119995 43.51089924573898 -353.7869954109192 -9.88741971552372 15.598200112581253 -2.5732100754976273 7.31329970061779 -12.32740044593811 -0.2688790066167712 -8.548090159893036 19.540899842977524 -14.648800045251846 12.560999393463135 -32.16690123081207 -26.00530117750168 0.0 0.0 0.0 0.0 0.0 0.0 0.0 0.0 0.0 52.69719958305359 -2.9993798956274986 31.579298973083496 -27.849199175834656 -29.77780133485794 66.89379930496216 -1.6982399672269821 34.29449915885925 5.50027996301651 3.460911557340296e-09 2.3175061869551428e-09 -2.148681232938543e-09 5.916866996358294e-09 3.765308065339923e-09 -3.796003511524759e-09 3.460911557340296e-09 2.3175061869551428e-09 -2.148681232938543e-09 7.7309102565050125 5.474880114197731 0.41731400415301323 3.460911557340296e-09 2.3175061869551428e-09 -2.148681232938543e-09 2.905540131032467 0.9651830233633518 0.102901995414868 3.460911557340296e-09 2.3175061869551428e-09 -2.148681232938543e-09 10.27859978377819 0.7318009994924068 0.025912300043273717 3.460911557340296e-09 2.3175061869551428e-09 -2.148681232938543e-09 2.221670038998127 -0.733487019315362 -0.2089200052432716 0.0 0.0 0.0 -31.517398953437805 80.7735013961792 -43.95309895277023 26.689800918102264 -44.798000156879425 -93.0482017993927 50.81070005893707 -80.63699841499329 58.46920073032379 2.6155078103329288e-09 5.0954440666828305e-09 -2.793285602820106e-09 4.664748587401846e-09 1.1827978596556932e-08 -4.56850557384314e-09 2.6155078103329288e-09 5.0954440666828305e-09 -2.793285602820106e-09 -7.7309102565050125 5.474880114197731 -0.41731400415301323 2.6155078103329288e-09 5.0954440666828305e-09 -2.793285602820106e-09 -2.905540131032467 0.9651830233633518 -0.102901995414868 2.6155078103329288e-09 5.0954440666828305e-09 -2.793285602820106e-09 -10.27859978377819 0.7318009994924068 -0.025912300043273717 2.6155078103329288e-09 5.0954440666828305e-09 -2.793285602820106e-09 -2.221670038998127 -0.733487019315362 0.2089200052432716 0.0 0.0 0.0 -55.02570033073425 -52.96830117702484 -52.06399977207184 -3.6044399812817574 76.64809763431549 3.9416399225592613 -0.08341149834450334 -13.751299381256104 1.1003999691456556 0.0 0.0 0.0 30.780000686645508 -34.34170067310333 34.99839931726456 3.445570059120655 77.79239773750305 -4.873560033738613 7.556950226426125 -15.126199722290039 17.06880033016205
-0.1598300002515316 64.464599609375 -0.364300012588501 -356.7069983482361 43.53090047836304 -353.6340022087097 -10.07439985871315 15.564099848270416 -2.483849935233593 7.313830107450485 -12.235899567604065 -0.2550169941969216 -8.535709753632545 19.617800116539 -14.632300436496735 12.584600150585175 -32.09090083837509 -25.975099503993988 0.0 0.0 0.0 0.0 0.0 0.0 -3.197442310920451e-13 0.0 0.0 52.75530159473419 -3.089430034160614 31.588799357414246 -27.836700081825256 -29.71430003643036 66.7930018901825 -1.686439923942089 34.19289976358414 5.479279942810535 8.839649012770678e-09 2.036131263594143e-09 -7.822222869435791e-09 1.5058354563279863e-08 2.844444679794833e-09 -1.3710632629226893e-08 8.839649012770678e-09 2.036131263594143e-09 -7.822222869435791e-09 7.7309102565050125 5.474880114197731 0.41731400415301323 8.839649012770678e-09 2.036131263594143e-09 -7.822222869435791e-09 2.905540131032467 0.9651830233633518 0.102901995414868 8.839649012770678e-09 2.036131263594143e-09 -7.822222869435791e-09 10.27859978377819 0.7318009994924068 0.025912300043273717 8.839649012770678e-09 2.036131263594143e-09 -7.822222869435791e-09 2.221670038998127 -0.733487019315362 -0.2089200052432716 -3.197442310920451e-13 0.0 0.0 -32.035400569438934 80.88379919528961 -43.47110062837601 26.690101325511932 -44.79720085859299 -93.04660320281982 51.989198327064514 -80.75129806995392 59.66350257396698 3.0318147992147715e-09 -2.1343566913856193e-08 -7.479457053705119e-09 5.686011661509838e-09 -2.996387138409773e-08 -1.2467467058741022e-08 3.0318147992147715e-09 -2.1343566913856193e-08 -7.479457053705119e-09 -7.7309102565050125 5.474880114197731 -0.41731400415301323 3.0318147992147715e-09 -2.1343566913856193e-08 -7.479457053705119e-09 -2.905540131032467 0.9651830233633518 -0.102901995414868 3.0318147992147715e-09 -2.1343566913856193e-08 -7.479457053705119e-09 -10.27859978377819 0.7318009994924068 -0.025912300043273717 3.0318147992147715e-09 -2.1343566913856193e-08 -7.479457053705119e-09 -2.221670038998127 -0.733487019315362 0.2089200052432716 0.0 0.0 0.0 -55.15760064125061 -53.09690237045288 -51.96450054645538 -3.6001598462462425 76.62910223007202 3.938079960644245 -0.1547589967958629 -13.38860034942627 0.9335949830710888 0.0 0.0 0.0 30.642800331115723 -34.46749895811081 34.94520038366318 3.4673599898815155 77.85539746284485 -4.89776998758316 7.562910094857216 -15.038400292396545 17.136500626802444
-0.1724899997934699 64.42739868164062 -0.42570001259446144 -356.59799337387085 43.58720004558563 -353.56900691986084 -10.149299874901772 15.502300411462784 -2.514479923993349 7.324890196323395 -12.110799998044968 -0.2716769906692207 -8.609249889850616 19.52490046620369 -14.591699838638306 12.522799372673035 -31.822599470615387 -25.918199121952057 0.0 0.0 0.0 0.0 0.0 0.0 -3.197442310920451e-13 0.0 0.0 52.795400619506836 -3.0945299193263054 31.689001321792603 -27.820598781108856 -29.631999135017395 66.66149854660034 -1.6918799467384815 34.23969894647598 5.488960035145283 6.909353089668002e-09 1.8417267710901797e-09 -5.970264282950666e-09 1.1772662844578008e-08 2.660272002685815e-09 -1.0467147149029188e-08 6.909353089668002e-09 1.8417267710901797e-09 -5.970264282950666e-09 7.7309102565050125 5.474880114197731 0.41731400415301323 6.909353089668002e-09 1.8417267710901797e-09 -5.970264282950666e-09 2.905540131032467 0.9651830233633518 0.102901995414868 6.909353089668002e-09 1.8417267710901797e-09 -5.970264282950666e-09 10.27859978377819 0.7318009994924068 0.025912300043273717 6.909353089668002e-09 1.8417267710901797e-09 -5.970264282950666e-09 2.221670038998127 -0.733487019315362 -0.2089200052432716 -3.197442310920451e-13 0.0 0.0 -32.511200308799744 80.86110234260559 -43.01959902048111 26.690798699855804 -44.795599579811096 -93.04329872131348 54.00009870529175 -80.9311991930008 61.70030236244202 2.1023183194301964e-09 -1.5081695892149583e-08 -5.269384928396903e-09 3.950120230911125e-09 -2.116962605214212e-08 -8.784013516560663e-09 2.1023183194301964e-09 -1.5081695892149583e-08 -5.269384928396903e-09 -7.7309102565050125 5.474880114197731 -0.41731400415301323 2.1023183194301964e-09 -1.5081695892149583e-08 -5.269384928396903e-09 -2.905540131032467 0.9651830233633518 -0.102901995414868 2.1023183194301964e-09 -1.5081695892149583e-08 -5.269384928396903e-09 -10.27859978377819 0.7318009994924068 -0.025912300043273717 2.1023183194301964e-09 -1.5081695892149583e-08 -5.269384928396903e-09 -2.221670038998127 -0.733487019315362 0.2089200052432716 0.0 0.0 0.0 -55.35489857196808 -53.10270130634308 -52.034398913383484 -3.635910004377365 76.6754025220871 3.972950018942356 -0.14639000175520778 -13.308800607919693 0.9613400045782328 0.0 0.0 0.0 30.628099143505096 -34.512900710105896 34.979999363422394 3.4835099056363106 77.89880096912384 -4.91362988948822 7.535220310091972 -14.976100623607635 17.110999524593353
